<svg id="레이어_2" data-name="레이어 2" xmlns="http://www.w3.org/2000/svg" viewBox="0 0 24 24"><title>대지 1</title><path d="M20,5a6.41,6.41,0,0,0-3.67-1,6.68,6.68,0,0,0-3.85,1.14A4.66,4.66,0,0,1,9.66,6a4.6,4.6,0,0,1-2.81-.86A6.77,6.77,0,0,0,4,4.07v2a5.07,5.07,0,0,1,1.82.78A6.62,6.62,0,0,0,9.66,8a6.63,6.63,0,0,0,3.85-1.14A4.66,4.66,0,0,1,16.33,6a4.66,4.66,0,0,1,2.82.86c.27.16.54.32.85.47Z"/><path d="M20,11a6.41,6.41,0,0,0-3.67-1,6.68,6.68,0,0,0-3.85,1.14A4.66,4.66,0,0,1,9.66,12a4.6,4.6,0,0,1-2.81-.86A6.77,6.77,0,0,0,4,10.07v2a5.07,5.07,0,0,1,1.82.78A6.62,6.62,0,0,0,9.66,14a6.63,6.63,0,0,0,3.85-1.14A4.66,4.66,0,0,1,16.33,12a4.66,4.66,0,0,1,2.82.86c.27.16.54.32.85.47Z"/><path d="M16,16a6.71,6.71,0,0,0-3.52,1.13A4.66,4.66,0,0,1,9.66,18a4.6,4.6,0,0,1-2.81-.86A6.77,6.77,0,0,0,4,16.07v2a5.07,5.07,0,0,1,1.82.78A6.62,6.62,0,0,0,9.66,20a6.63,6.63,0,0,0,3.85-1.14A4.69,4.69,0,0,1,16,18Z"/><path d="M18,16.18v2.08a7.88,7.88,0,0,1,1.15.6c.27.16.54.32.85.47V17A6.76,6.76,0,0,0,18,16.18Z"/></svg>