<?xml version="1.0" standalone="no"?>
<!DOCTYPE svg PUBLIC "-//W3C//DTD SVG 20010904//EN"
 "http://www.w3.org/TR/2001/REC-SVG-20010904/DTD/svg10.dtd">
<svg version="1.0" xmlns="http://www.w3.org/2000/svg"
 width="1200.000000pt" height="1200.000000pt" viewBox="0 0 1200.000000 1200.000000"
 preserveAspectRatio="xMidYMid meet">
<metadata>
Created by potrace 1.11, written by Peter Selinger 2001-2013
</metadata>
<g transform="translate(0.000000,1200.000000) scale(0.100000,-0.100000)"
fill="#000000" stroke="none">
<path d="M2361 9621 l-791 -949 0 -3481 0 -3481 4430 0 4430 0 0 3481 0 3481
-791 949 -791 949 -2848 0 -2848 0 -791 -949z m6169 -2061 l0 -2370 -2530 0
-2530 0 0 2370 0 2370 2530 0 2530 0 0 -2370z m-6009 -3237 l-310 -618 0 2370
-1 2371 308 369 307 369 3 -2122 2 -2122 -309 -617z m6679 -863 c302 -605 550
-1102 550 -1105 0 -3 -1687 -5 -3750 -5 -2062 0 -3750 2 -3750 5 0 3 248 500
550 1105 l550 1100 2650 0 2650 0 550 -1100z"/>
<path d="M4100 8355 l0 -955 950 0 950 0 0 320 0 320 -630 0 -630 0 0 315 0
315 630 0 630 0 0 320 0 320 -950 0 -950 0 0 -955z"/>
</g>
</svg>
