<?xml version="1.0" standalone="no"?>
<!DOCTYPE svg PUBLIC "-//W3C//DTD SVG 20010904//EN"
 "http://www.w3.org/TR/2001/REC-SVG-20010904/DTD/svg10.dtd">
<svg version="1.0" xmlns="http://www.w3.org/2000/svg"
 width="260.000000pt" height="260.000000pt" viewBox="0 0 260.000000 260.000000"
 preserveAspectRatio="xMidYMid meet">
<metadata>
Created by potrace 1.14, written by Peter Selinger 2001-2017
</metadata>
<g transform="translate(0.000000,260.000000) scale(0.100000,-0.100000)"
fill="#000000" stroke="none">
<path d="M1228 2086 l-3 -514 -145 251 c-80 138 -157 271 -171 296 -15 25 -61
107 -104 181 -42 74 -82 141 -89 147 -9 10 -23 5 -66 -21 -30 -18 -54 -39 -52
-45 2 -10 360 -635 431 -752 12 -19 26 -45 32 -59 6 -14 18 -33 26 -43 9 -9
14 -19 12 -21 -4 -4 -33 12 -199 106 -19 11 -72 42 -118 69 -45 27 -87 49 -92
49 -6 0 -10 5 -10 10 0 6 -4 10 -9 10 -5 0 -106 56 -225 125 -119 69 -221 126
-227 127 -10 3 -84 -111 -77 -117 2 -1 28 -16 58 -33 30 -16 149 -84 263 -151
115 -67 213 -121 218 -121 5 0 9 -4 9 -9 0 -5 6 -11 13 -13 7 -2 83 -43 170
-93 l158 -90 -516 -3 -515 -2 0 -70 0 -70 514 -2 514 -3 -250 -145 c-138 -80
-272 -157 -297 -171 -175 -100 -318 -183 -329 -192 -10 -8 -7 -20 14 -56 45
-78 36 -78 179 6 129 75 164 96 227 131 18 11 121 70 228 132 107 62 211 121
230 132 19 11 41 25 48 30 7 6 14 9 17 7 2 -2 -59 -112 -136 -244 -76 -132
-142 -246 -145 -254 -4 -7 -56 -97 -115 -200 -106 -183 -116 -211 -74 -211 8
0 15 -3 17 -7 2 -5 17 -16 34 -25 25 -14 34 -15 42 -5 8 10 92 155 191 328 14
25 91 159 171 297 l145 251 3 -515 2 -514 70 0 70 0 0 518 0 517 59 -100 c32
-55 120 -208 196 -340 129 -224 176 -305 240 -413 28 -47 24 -48 108 5 l38 24
-24 42 c-14 23 -34 58 -44 77 -11 19 -35 60 -52 90 -18 30 -36 62 -41 70 -5 8
-30 51 -56 95 -25 44 -60 105 -77 135 -17 30 -48 83 -69 118 -21 34 -38 65
-38 68 0 3 -8 18 -18 32 -10 15 -36 58 -56 96 l-38 68 53 -29 c30 -17 212
-121 404 -233 193 -111 369 -213 392 -226 l41 -24 36 58 c27 44 32 60 23 68
-7 6 -163 98 -347 204 -184 106 -380 219 -435 252 l-100 58 518 0 517 0 0 70
0 70 -517 0 -518 0 70 41 c110 65 453 262 645 372 96 55 176 101 178 102 4 3
-48 97 -62 112 -8 9 -109 -45 -425 -228 -228 -131 -418 -239 -421 -239 -4 0
-13 -7 -20 -15 -7 -8 -16 -15 -21 -15 -10 0 7 34 63 130 18 31 71 122 118 204
47 81 93 161 103 178 27 47 171 297 196 340 l21 38 -23 13 c-50 31 -100 58
-101 55 -2 -2 -52 -88 -112 -193 -60 -104 -114 -199 -121 -210 -7 -11 -15 -27
-19 -35 -4 -8 -26 -46 -49 -85 -24 -38 -52 -88 -64 -110 -12 -22 -26 -47 -31
-55 -6 -8 -35 -58 -65 -110 l-55 -95 0 518 0 517 -70 0 -70 0 -2 -514z"/>
</g>
</svg>
