<?xml version="1.0" standalone="no"?>
<!DOCTYPE svg PUBLIC "-//W3C//DTD SVG 20010904//EN"
 "http://www.w3.org/TR/2001/REC-SVG-20010904/DTD/svg10.dtd">
<svg version="1.0" xmlns="http://www.w3.org/2000/svg"
 width="260.000000pt" height="260.000000pt" viewBox="0 0 260.000000 260.000000"
 preserveAspectRatio="xMidYMid meet">
<metadata>
Created by potrace 1.11, written by Peter Selinger 2001-2013
</metadata>
<g transform="translate(0.000000,260.000000) scale(0.100000,-0.100000)"
fill="#000000" stroke="none">
<path d="M450 2255 c0 -29 4 -45 13 -46 28 -1 103 -10 120 -13 14 -4 17 4 17
50 l0 54 -75 0 -75 0 0 -45z"/>
<path d="M700 1300 l0 -1000 669 0 668 0 -3 267 c-1 148 -3 273 -3 278 -1 10
-136 13 -147 3 -3 -4 -30 -98 -60 -210 -30 -111 -58 -210 -63 -218 -7 -13 -52
-15 -300 -15 -185 0 -295 3 -299 10 -3 5 -8 200 -10 432 l-3 423 43 1 c160 2
320 0 324 -3 2 -3 6 -27 9 -54 3 -27 8 -58 10 -69 1 -11 6 -50 10 -87 l7 -66
53 -4 c93 -6 85 -40 85 341 l0 337 -62 -2 c-35 -1 -66 -2 -69 -3 -3 0 -9 -27
-13 -58 -3 -32 -8 -71 -11 -88 -7 -45 -14 -97 -14 -122 l-1 -23 -186 0 -186 0
5 413 c3 226 5 412 6 412 1 0 123 0 271 0 232 0 271 -2 275 -15 12 -39 98
-339 107 -372 10 -37 15 -40 58 -40 11 0 40 0 65 1 l45 1 0 265 0 265 -640 0
-640 0 0 -1000z"/>
<path d="M568 404 c-3 -2 -84 -13 -105 -13 -9 -1 -13 -17 -13 -46 l0 -45 75 0
75 0 0 53 c0 41 -4 54 -15 54 -8 0 -16 -1 -17 -3z"/>
</g>
</svg>
